<?xml version="1.0" encoding="UTF-8"?>
<svg id="Ebene_2" data-name="Ebene 2" xmlns="http://www.w3.org/2000/svg" viewBox="0 0 514.71 304.66">
  <defs>
    <style>
      .cls-1 {
        opacity: .15;
      }

      .cls-1, .cls-2 {
        isolation: isolate;
      }

      .cls-3 {
        fill: #9191f2;
      }

      .cls-4 {
        fill: #6565db;
      }

      .cls-2 {
        fill: #fff;
        opacity: .3;
      }
    </style>
  </defs>
  <g id="Layer_1" data-name="Layer 1">
    <g>
      <path class="cls-4" d="M371.83,3.97c-5.28-1.71-10.87-2.79-16.61-3.42-73.27-7.45-92.05,62.4-92.05,62.4,0,0-18.78-69.85-91.9-62.4-67.99,6.83-103.7,92.52-59.14,164.55,12.73,20.65,32.6,42.84,53.87,63.49,42.69,41.45,90.81,75.91,97.18,75.91,9.62,0,112.54-77.15,151.04-139.24,40.83-65.97,14.44-143.44-42.38-161.29h0Z"/>
      <path class="cls-3" d="M138.08,184.61l-19.81-10.21-20.47-10.55,10.47-5.41c-11.12-20.4-16.06-41.65-15.85-61.69l-72.27,37.83C4.78,142.68,0,152.23,0,163.85s4.78,21.17,20.15,29.27l88.45,46.3c6.22,3.32,11.2,4.35,16.19,4.35,15.73,0,27.99-10.39,30.47-25.88.3-1.89.46-3.85.46-5.88,0-11.84-5.41-21.17-17.64-27.4Z"/>
      <ellipse class="cls-2" cx="144.98" cy="54.7" rx="38.4" ry="19.43" transform="translate(9.66 130.2) rotate(-49.83)"/>
      <g>
        <path class="cls-1" d="M152.99,199.47c3.85,8.87,2.26,18.43,2.26,18.43l10.74,10.85c-.02-2.89-.35-6.46-1.44-10.39-2.66-9.58-8.34-15.84-11.56-18.89Z"/>
        <path class="cls-1" d="M371.83,3.97s56.66,54.64,24.06,110.84c-6.24,10.76-15.29,22.02-25.93,33.21l-11.01-20.43c-5.53,6.84-6.53,15.42-2.77,21.13,2.23,3.4,5.59,4.95,7.56,5.64-45.23,44.96-112.92,87.05-124.79,88.97-12.73,2.02-45.02-.93-72.96-14.59,42.69,41.45,90.81,75.91,97.18,75.91,9.62-.16,112.54-77.31,151.04-139.55,40.83-65.82,14.44-143.28-42.38-161.13Z"/>
      </g>
      <path class="cls-3" d="M494.58,143.73l-61.38-32.12h0s-27.07-14.18-27.07-14.18c-.85-.45-1.68-.86-2.48-1.23-5.12-2.37-9.41-3.14-13.71-3.14-17.64,0-30.93,13.09-30.93,31.77,0,9.41,3.4,17.24,10.96,23.19,1.94,1.53,4.17,2.94,6.68,4.22l34.44,17.74.06.04,5.78,2.98-12.34,6.36-.15.08c-12.24,16.56-28.02,33.66-44.57,49.69v.04c3.22,14.32,15.07,23.76,30.07,23.76,4.98,0,9.96-1.04,16.19-4.35l88.45-46.3c15.37-8.1,20.13-17.64,20.13-29.27s-4.77-21.17-20.13-29.27Z"/>
    </g>
  </g>
</svg>